<?xml version="1.0" encoding="iso-8859-1"?>
<!-- Generator: Adobe Illustrator 26.5.0, SVG Export Plug-In . SVG Version: 6.00 Build 0)  -->
<svg version="1.1" id="&#xB808;&#xC774;&#xC5B4;_1" xmlns="http://www.w3.org/2000/svg" xmlns:xlink="http://www.w3.org/1999/xlink"
	 x="0px" y="0px" viewBox="0 0 100 70" style="width: 30px; height: 15px;" xml:space="preserve">
<g>
	<linearGradient id="gradient" gradientTransform="rotate(90)">
		<stop offset="0%" stop-color="#2ea2e6" />
		<stop offset="100%" stop-color="#ffffff" />
	</linearGradient>
	<path style="fill:url(#gradient);stroke-width:1;stroke-miterlimit:10;" d="M86.669,46.024
		c0.57-1.427,0.887-2.982,0.887-4.613c0-6.87-5.569-12.439-12.439-12.439c-0.895,0-1.767,0.097-2.609,0.276
		c0.232-1.144,0.354-2.327,0.354-3.539c0-9.785-7.932-17.717-17.717-17.717c-6.964,0-12.987,4.02-15.882,9.864
		c-1.918-1.208-4.186-1.91-6.62-1.91c-6.87,0-12.439,5.569-12.439,12.439c0,0.357,0.019,0.71,0.048,1.059
		C13.026,31.208,7.66,37.721,7.66,45.49c0,8.933,7.092,16.205,15.953,16.504l-0.001,0.001l0.567,0.013h59.97
		c4.524,0,8.192-3.668,8.192-8.192C92.34,50.172,89.959,47.088,86.669,46.024z"/>
</g>
</svg>