<?xml version="1.0" encoding="iso-8859-1"?>
<!-- Generator: Adobe Illustrator 26.5.0, SVG Export Plug-In . SVG Version: 6.00 Build 0)  -->
<svg version="1.1" id="&#xB808;&#xC774;&#xC5B4;_1" xmlns="http://www.w3.org/2000/svg" xmlns:xlink="http://www.w3.org/1999/xlink"
	 x="0px" y="0px" viewBox="0 0 100 100" style="enable-background:new 0 0 100 100;" xml:space="preserve">
<g>
	<g>
		<rect x="12" y="6" style="fill:#31E6DA;" width="16" height="16"/>
		<rect x="28" y="6" style="fill:#31E6DA;" width="16" height="16"/>
		<rect x="44" y="6" style="fill:#31E6DA;" width="16" height="16"/>
		<rect x="12" y="22" style="fill:#31E6DA;" width="16" height="16"/>
		<rect x="12" y="38" style="fill:#31E6DA;" width="16" height="16"/>
		<rect x="12" y="54" style="fill:#31E6DA;" width="16" height="16"/>
		<rect x="12" y="70" style="fill:#31E6DA;" width="16" height="16"/>
		<rect x="28" y="70" style="fill:#31E6DA;" width="16" height="16"/>
	</g>
	<g>
		<rect x="28" y="14" style="fill:#D430F1;" width="16" height="16"/>
		<rect x="44" y="14" style="fill:#D430F1;" width="16" height="16"/>
		<rect x="60" y="14" style="fill:#D430F1;" width="16" height="16"/>
		<rect x="76" y="30" style="fill:#D430F1;" width="16" height="16"/>
		<rect x="76" y="46" style="fill:#D430F1;" width="16" height="16"/>
		<rect x="76" y="62" style="fill:#D430F1;" width="16" height="16"/>
		<rect x="28" y="30" style="fill:#D430F1;" width="16" height="16"/>
		<rect x="28" y="46" style="fill:#D430F1;" width="16" height="16"/>
		<rect x="28" y="62" style="fill:#D430F1;" width="16" height="16"/>
		<rect x="28" y="78" style="fill:#D430F1;" width="16" height="16"/>
		<rect x="44" y="78" style="fill:#D430F1;" width="16" height="16"/>
		<rect x="60" y="78" style="fill:#D430F1;" width="16" height="16"/>
	</g>
	<g>
		<rect x="20" y="14" width="16" height="16"/>
		<rect x="36" y="14" width="16" height="16"/>
		<rect x="52" y="14" width="16" height="16"/>
		<rect x="68" y="30" width="16" height="16"/>
		<rect x="68" y="46" width="16" height="16"/>
		<rect x="68" y="62" width="16" height="16"/>
		<rect x="20" y="30" width="16" height="16"/>
		<rect x="20" y="46" width="16" height="16"/>
		<rect x="20" y="62" width="16" height="16"/>
		<rect x="20" y="78" width="16" height="16"/>
		<rect x="36" y="78" width="16" height="16"/>
		<rect x="52" y="78" width="16" height="16"/>
	</g>
</g>
</svg>
